<?xml version="1.0" encoding="utf-8"?>
<!-- Generator: Adobe Illustrator 18.1.1, SVG Export Plug-In . SVG Version: 6.00 Build 0)  -->
<svg version="1.1" id="Layer_1" xmlns="http://www.w3.org/2000/svg" xmlns:xlink="http://www.w3.org/1999/xlink" x="0px" y="0px"
	 viewBox="0 0 944 377" enable-background="new 0 0 944 377" xml:space="preserve">
<linearGradient id="SVGID_1_" gradientUnits="userSpaceOnUse" x1="17.4355" y1="170.4857" x2="448" y2="170.4857">
	<stop  offset="0" style="stop-color:#FFFFFF"/>
	<stop  offset="1" style="stop-color:#00ADDC"/>
</linearGradient>
<polygon fill="url(#SVGID_1_)" points="179.4,29 17.4,311.9 448,290 "/>
<linearGradient id="SVGID_2_" gradientUnits="userSpaceOnUse" x1="467.3932" y1="388.1974" x2="343.3932" y2="17.1974">
	<stop  offset="0" style="stop-color:#FFFFFF"/>
	<stop  offset="1" style="stop-color:#00ADDC"/>
</linearGradient>
<polygon fill="url(#SVGID_2_)" points="230,254.8 395,60.8 451,60.8 626,220.8 565,319.8 230,319.8 "/>
<polygon fill="none" stroke="#FEFEFF" stroke-width="5" stroke-miterlimit="10" points="460.9,210.2 497.5,135.3 576.5,216.3 
	521,265.1 "/>
<linearGradient id="SVGID_3_" gradientUnits="userSpaceOnUse" x1="161.6844" y1="277.417" x2="340.6844" y2="277.417">
	<stop  offset="0" style="stop-color:#FFFFFF"/>
	<stop  offset="1" style="stop-color:#00ADDC"/>
</linearGradient>
<polygon fill="url(#SVGID_3_)" points="219,214.4 161.7,340.4 340.7,315.1 "/>
<polygon fill="none" stroke="#FFFFFF" stroke-width="5" stroke-miterlimit="10" points="224.8,180.4 190.8,334.8 311.6,318 "/>
<polygon fill="none" stroke="#FFFFFF" stroke-width="6" stroke-miterlimit="10" points="323.6,151.8 402.2,267.9 525.5,311.9 
	598.2,272 469.8,116.9 "/>
<linearGradient id="SVGID_4_" gradientUnits="userSpaceOnUse" x1="507.5511" y1="195.3356" x2="903.5511" y2="195.3356">
	<stop  offset="0" style="stop-color:#FFFFFF"/>
	<stop  offset="1" style="stop-color:#6ACCE1"/>
</linearGradient>
<polygon fill="url(#SVGID_4_)" points="507.6,259.8 672.6,65.8 728.6,65.8 903.6,225.8 842.6,324.8 507.6,324.8 "/>
<polygon fill="none" stroke="#FEFEFF" stroke-width="5" stroke-miterlimit="10" points="777.4,210.2 814,135.3 893,216.3 
	837.5,265.1 "/>
<polygon fill="none" stroke="#FFFFFF" stroke-width="6" stroke-miterlimit="10" points="620.6,147.1 690.6,254.9 802.1,294.7 
	868.5,256.5 753.8,112.8 "/>
<linearGradient id="SVGID_5_" gradientUnits="userSpaceOnUse" x1="529.8365" y1="172.5693" x2="836.8365" y2="172.5693" gradientTransform="matrix(0.9729 0.2314 -0.2314 0.9729 80.7313 -75.5708)">
	<stop  offset="0" style="stop-color:#FFFFFF"/>
	<stop  offset="1" style="stop-color:#00ADDC"/>
</linearGradient>
<polygon fill="url(#SVGID_5_)" points="678.4,125.8 529.6,326.8 839,352.9 "/>
<polygon fill="none" stroke="#FFFFFF" stroke-width="5" stroke-miterlimit="10" points="675.9,136.5 583,331.7 744.6,346.5 "/>
<path fill="#FFFFFF" d="M673.6,63.8c0,0-6.9,19.2,11.8,25.2S717,76.4,717,76.4s0,21.6,15,26.6s25.1-14,25.1-14l-27.5-25.2H673.6z"/>
<path fill="#FFFFFF" d="M395.6,59.8c0,0-6.9,19.2,11.8,25.2S439,72.4,439,72.4S439,94,454,99s25.1-14,25.1-14l-27.5-25.2H395.6z"/>
<polygon fill="none" stroke="#FFFFFF" stroke-width="6" stroke-miterlimit="10" points="158.4,77.7 368,306 448,301.9 179.4,40.9 
	"/>
</svg>
