<?xml version="1.0" encoding="utf-8"?>
<!-- Generator: Adobe Illustrator 18.1.1, SVG Export Plug-In . SVG Version: 6.00 Build 0)  -->
<svg version="1.1" id="Layer_1" xmlns="http://www.w3.org/2000/svg" xmlns:xlink="http://www.w3.org/1999/xlink" x="0px" y="0px"
	 viewBox="0 0 300.7 388.2" enable-background="new 0 0 300.7 388.2" xml:space="preserve">
<linearGradient id="SVGID_1_" gradientUnits="userSpaceOnUse" x1="242.307" y1="144.9954" x2="262.7499" y2="144.9954">
	<stop  offset="0" style="stop-color:#000000"/>
	<stop  offset="1" style="stop-color:#002B42"/>
</linearGradient>
<polygon fill="url(#SVGID_1_)" points="242.3,118.9 255,171.3 262.7,167.6 247.1,118.7 "/>
<polygon fill="#002B42" points="179.8,223.1 284.2,118.7 292.3,140 179.8,252.5 "/>
<polygon fill="#002B42" points="169.5,174.4 118.4,41.7 132.4,34 187.5,177 "/>
<polygon fill="#002B42" points="172.1,173.2 197.2,51.9 212.5,54.8 185.4,185.6 "/>
<polygon fill="#002B42" points="167.2,156.3 167.2,353.7 187,353.7 187,269.5 187,156.3 "/>
<linearGradient id="SVGID_2_" gradientUnits="userSpaceOnUse" x1="96.7752" y1="177.8476" x2="123.7944" y2="177.8476">
	<stop  offset="0" style="stop-color:#000000"/>
	<stop  offset="1" style="stop-color:#002B42"/>
</linearGradient>
<polygon fill="url(#SVGID_2_)" points="110.5,203.9 96.8,139.4 103.6,139.4 123.8,216.3 "/>
<polygon fill="#002B42" points="168.3,233.4 168.3,265.7 31.8,129.1 62.4,129.1 "/>
</svg>
