<?xml version="1.0" encoding="utf-8"?>
<!-- Generator: Adobe Illustrator 18.1.1, SVG Export Plug-In . SVG Version: 6.00 Build 0)  -->
<svg version="1.1" id="Layer_1" xmlns="http://www.w3.org/2000/svg" xmlns:xlink="http://www.w3.org/1999/xlink" x="0px" y="0px"
	 viewBox="0 0 792 291" enable-background="new 0 0 792 291" xml:space="preserve">
<linearGradient id="SVGID_1_" gradientUnits="userSpaceOnUse" x1="770.7658" y1="115.7452" x2="419.0273" y2="116.1762">
	<stop  offset="0" style="stop-color:#FFFFFF"/>
	<stop  offset="1" style="stop-color:#C1C8E6"/>
</linearGradient>
<path fill="url(#SVGID_1_)" d="M427.9,172.1c0,0,69.1-197.8,225-142.6s306.9,182.4,306.9,182.4l-531.9-11V172.1z"/>
<linearGradient id="SVGID_2_" gradientUnits="userSpaceOnUse" x1="520.2413" y1="152.8223" x2="-79.7587" y2="153.5575">
	<stop  offset="0" style="stop-color:#FFFFFF"/>
	<stop  offset="1" style="stop-color:#C1C8E6"/>
</linearGradient>
<path fill="url(#SVGID_2_)" d="M-64.8,86.8c0,0,179.9-54.1,268.4-12.9c0,0,70.8-6.7,145.9-12.5c73.3-5.7,150.7-10.6,169.9-7.8
	c82,12.2,323.3,198.8,323.3,198.8h-696C146.8,252.4-3.5,117.1-64.8,86.8z"/>
<linearGradient id="SVGID_3_" gradientUnits="userSpaceOnUse" x1="436.695" y1="292.8124" x2="-132.4227" y2="121.4889">
	<stop  offset="0" style="stop-color:#FFFFFF"/>
	<stop  offset="1" style="stop-color:#BEDEEE"/>
</linearGradient>
<path fill="url(#SVGID_3_)" d="M69,152.4c0,0,116.7-118.2,349.9-26.1s94.3,196.3,94.3,196.3H-6.6L69,152.4z"/>
<linearGradient id="SVGID_4_" gradientUnits="userSpaceOnUse" x1="561.6542" y1="125.9863" x2="757.2425" y2="304.6628">
	<stop  offset="0" style="stop-color:#FFFFFF"/>
	<stop  offset="1" style="stop-color:#BEDEEE"/>
</linearGradient>
<path fill="url(#SVGID_4_)" d="M792,291v-219c0,0-253-56.2-339.1,219H792z"/>
<linearGradient id="SVGID_5_" gradientUnits="userSpaceOnUse" x1="124.1231" y1="279.3299" x2="-136.171" y2="16.0946">
	<stop  offset="0" style="stop-color:#FFFFFF"/>
	<stop  offset="1" style="stop-color:#BEDEEE"/>
</linearGradient>
<path fill="url(#SVGID_5_)" d="M0,86.8c0,0,110.3,41.2,159.6,91.2S242.6,291,242.6,291H0V86.8z"/>
</svg>
